# Blender 3.6.2
# www.blender.org
mtllib door.mtl
o Cube
v -0.240614 0.673634 0.916151
v -0.240614 3.620731 0.916151
v -0.240614 0.673634 -0.916151
v -0.240614 3.620731 -0.916151
v 0.158918 0.673634 0.916151
v 0.158918 3.620731 0.916151
v 0.158918 0.673634 -0.916151
v 0.158918 3.620731 -0.916151
v -0.240614 0.132638 -1.188497
v -0.240614 0.132638 1.188497
v -0.240614 4.161727 1.188497
v -0.240614 4.161727 -1.188497
v 0.158918 4.161727 -1.188497
v 0.158918 0.132638 -1.188497
v 0.158918 0.132638 1.188497
v 0.158918 4.161727 1.188497
v -0.144364 0.749202 -0.869168
v -0.144364 0.749202 0.869168
v -0.144364 3.545163 0.869168
v -0.144364 3.545163 -0.869168
v 0.062667 3.545163 -0.869168
v 0.062667 0.749202 -0.869168
v 0.062667 0.749202 0.869168
v 0.062667 3.545163 0.869168
vn 0.6175 0.7865 -0.0000
vn -0.0000 -0.0000 -1.0000
vn 0.4387 -0.0000 -0.8987
vn -0.0000 -0.0000 1.0000
vn -0.0000 -1.0000 -0.0000
vn -0.0000 1.0000 -0.0000
vn -1.0000 -0.0000 -0.0000
vn 1.0000 -0.0000 -0.0000
vn -0.4387 -0.0000 0.8986
vn -0.4387 -0.0000 -0.8986
vn 0.6175 -0.7865 -0.0000
vn 0.4387 -0.0000 0.8987
vn -0.6175 -0.7865 -0.0000
vn -0.6175 0.7865 -0.0000
vt 0.408568 0.721356
vt 0.408568 0.528644
vt 0.375000 0.250000
vt 0.625000 0.250000
vt 0.625000 0.500000
vt 0.375000 0.500000
vt 0.591432 0.721356
vt 0.375000 0.750000
vt 0.625000 0.750000
vt 0.625000 1.000000
vt 0.375000 1.000000
vt 0.125000 0.500000
vt 0.125000 0.750000
vt 0.875000 0.500000
vt 0.875000 0.750000
vt 0.408568 0.028644
vt 0.408568 0.221356
vt 0.375000 0.000000
vt 0.591432 0.028644
vt 0.625000 0.000000
vt 0.591432 0.221356
vt 0.591432 0.528644
s 0
f 5/1/1 7/2/1 22/2/1 23/1/1
f 9/3/2 12/4/2 13/5/2 14/6/2
f 6/7/3 5/1/3 23/1/3 24/7/3
f 15/8/4 16/9/4 11/10/4 10/11/4
f 9/12/5 14/6/5 15/8/5 10/13/5
f 13/5/6 12/14/6 11/15/6 16/9/6
f 1/16/7 3/17/7 9/3/7 10/18/7
f 2/19/7 1/16/7 10/18/7 11/20/7
f 4/21/7 2/19/7 11/20/7 12/4/7
f 3/17/7 4/21/7 12/4/7 9/3/7
f 8/22/8 7/2/8 14/6/8 13/5/8
f 7/2/8 5/1/8 15/8/8 14/6/8
f 6/7/8 8/22/8 13/5/8 16/9/8
f 5/1/8 6/7/8 16/9/8 15/8/8
f 18/16/7 19/19/7 20/21/7 17/17/7
f 22/2/8 21/22/8 24/7/8 23/1/8
f 4/21/9 3/17/9 17/17/9 20/21/9
f 1/16/10 2/19/10 19/19/10 18/16/10
f 8/22/11 6/7/11 24/7/11 21/22/11
f 7/2/12 8/22/12 21/22/12 22/2/12
f 2/19/13 4/21/13 20/21/13 19/19/13
f 3/17/14 1/16/14 18/16/14 17/17/14
o Cube.001
v -0.434086 1.662090 1.108327
v -0.434086 1.767986 1.108327
v -0.434086 1.662090 0.559148
v -0.434086 1.767986 0.559148
v -0.341551 1.662090 1.108327
v -0.341551 1.767986 1.108327
v -0.341551 1.662090 0.559148
v -0.341551 1.767986 0.559148
v -0.434086 1.662090 0.999271
v -0.434086 1.767986 0.999271
v -0.341551 1.662090 0.999271
v -0.341551 1.767986 0.999271
v -0.225378 1.767986 0.999271
v -0.225378 1.767986 1.108327
v -0.225378 1.662090 1.108327
v -0.225378 1.662090 0.999271
vn -1.0000 -0.0000 -0.0000
vn -0.0000 -0.0000 -1.0000
vn -0.0000 -0.0000 1.0000
vn -0.0000 -1.0000 -0.0000
vn -0.0000 1.0000 -0.0000
vn 1.0000 -0.0000 -0.0000
vt 0.375000 0.049645
vt 0.625000 0.049645
vt 0.625000 0.250000
vt 0.375000 0.250000
vt 0.625000 0.500000
vt 0.375000 0.500000
vt 0.625000 0.750000
vt 0.375000 0.750000
vt 0.625000 1.000000
vt 0.375000 1.000000
vt 0.125000 0.700355
vt 0.375000 0.700355
vt 0.125000 0.750000
vt 0.625000 0.700355
vt 0.875000 0.700355
vt 0.875000 0.750000
vt 0.875000 0.500000
vt 0.125000 0.500000
vt 0.375000 0.000000
vt 0.625000 0.000000
s 0
f 33/23/15 34/24/15 28/25/15 27/26/15
f 27/26/16 28/25/16 32/27/16 31/28/16
f 30/29/17 29/30/17 39/30/17 38/29/17
f 29/30/17 30/29/17 26/31/17 25/32/17
f 33/33/18 35/34/18 29/30/18 25/35/18
f 36/36/19 34/37/19 26/38/19 30/29/19
f 32/27/19 28/39/19 34/37/19 36/36/19
f 27/40/18 31/28/18 35/34/18 33/33/18
f 31/28/20 32/27/20 36/36/20 35/34/20
f 25/41/15 26/42/15 34/24/15 33/23/15
f 40/34/20 37/36/20 38/29/20 39/30/20
f 35/34/16 36/36/16 37/36/16 40/34/16
f 29/30/18 35/34/18 40/34/18 39/30/18
f 36/36/19 30/29/19 38/29/19 37/36/19
