# Blender 3.4.1
# www.blender.org
mtllib Magazine_Rack.mtl
o Cube
v 0.320821 -0.043289 -0.650976
v 0.283311 -0.005318 -0.598076
v 0.320821 1.956711 1.071007
v 0.320821 -0.043289 1.071007
v 0.283311 -0.005318 1.018107
v -0.320821 -0.043289 -0.650976
v -0.283311 -0.005318 -0.598076
v -0.320821 1.956711 1.071007
v -0.320821 -0.043289 1.071007
v -0.283311 -0.005318 1.018107
v -0.320821 1.956711 0.452936
v 0.320821 1.956711 0.452936
v -0.320821 1.200246 0.452936
v -0.320821 0.980246 0.232936
v -0.320821 1.044682 0.388500
v -0.320821 0.980246 -0.650976
v 0.320821 0.980246 -0.650976
v 0.320821 1.200246 0.452936
v 0.320821 0.980246 0.232936
v 0.320821 1.044682 0.388500
v -0.283311 1.956711 1.018107
v -0.283311 1.956711 0.452936
v 0.283311 1.956711 1.018107
v 0.283311 1.956711 0.452936
v -0.283311 1.200246 0.452936
v 0.283311 1.200246 0.452936
v -0.283311 1.044682 0.388500
v 0.283311 1.044682 0.388500
v -0.283311 0.980246 0.232936
v 0.283311 0.980246 0.232936
v -0.283311 0.980246 -0.598076
v 0.283311 0.980246 -0.598076
v -0.109065 0.467410 1.071007
v -0.106970 0.446133 1.071007
v -0.106970 0.488688 1.071007
v -0.100763 0.425673 1.071007
v -0.100763 0.509148 1.071007
v -0.090685 0.528004 1.071007
v -0.090685 0.406817 1.071007
v -0.077121 0.544531 1.071007
v -0.077121 0.390289 1.071007
v -0.060594 0.558095 1.071007
v -0.060594 0.376726 1.071007
v -0.041738 0.568174 1.071007
v -0.041738 0.366647 1.071007
v -0.021278 0.574380 1.071007
v -0.021278 0.360441 1.071007
v 0.000000 0.576476 1.071007
v 0.000000 0.358345 1.071007
v 0.021278 0.574380 1.071007
v 0.021278 0.360441 1.071007
v 0.041738 0.568174 1.071007
v 0.041738 0.366647 1.071007
v 0.077121 0.390289 1.071007
v 0.060594 0.558095 1.071007
v 0.060594 0.376726 1.071007
v 0.090685 0.406817 1.071007
v 0.077121 0.544531 1.071007
v 0.100763 0.425673 1.071007
v 0.090685 0.528004 1.071007
v 0.100763 0.509148 1.071007
v 0.109065 0.467410 1.071007
v 0.106970 0.488688 1.071007
v 0.106970 0.446133 1.071007
v -0.109065 0.467410 1.018107
v -0.106970 0.446133 1.018107
v -0.106970 0.488688 1.018107
v -0.100763 0.425673 1.018107
v -0.100763 0.509148 1.018107
v -0.090685 0.528004 1.018107
v -0.090685 0.406817 1.018107
v -0.077121 0.544531 1.018107
v -0.077121 0.390289 1.018107
v -0.060594 0.558095 1.018107
v -0.060594 0.376726 1.018107
v -0.041738 0.568174 1.018107
v -0.041738 0.366647 1.018107
v -0.021278 0.360441 1.018107
v -0.021278 0.574380 1.018107
v 0.000000 0.358345 1.018107
v 0.000000 0.576476 1.018107
v 0.021278 0.360441 1.018107
v 0.021278 0.574380 1.018107
v 0.041738 0.366647 1.018107
v 0.041738 0.568174 1.018107
v 0.060594 0.376726 1.018107
v 0.060594 0.558095 1.018107
v 0.090685 0.406817 1.018107
v 0.090685 0.528004 1.018107
v 0.109065 0.467410 1.018107
v 0.106970 0.488688 1.018107
v 0.106970 0.446133 1.018107
v 0.100763 0.509148 1.018107
v 0.100763 0.425673 1.018107
v 0.077121 0.390289 1.018107
v 0.077121 0.544531 1.018107
vn -0.0000 1.0000 -0.0000
vn -0.0000 -0.0000 1.0000
vn -1.0000 -0.0000 -0.0000
vn -0.0000 -1.0000 -0.0000
vn 1.0000 -0.0000 -0.0000
vn -0.0000 -0.0000 -1.0000
vn -0.0000 0.9239 -0.3827
vn -0.0000 0.3827 -0.9239
vn -0.0980 -0.9952 -0.0000
vn -0.2903 -0.9569 -0.0000
vn -0.4714 -0.8819 -0.0000
vn -0.6344 -0.7730 -0.0000
vn -0.7730 -0.6344 -0.0000
vn -0.8819 -0.4714 -0.0000
vn -0.9569 -0.2903 -0.0000
vn -0.9952 -0.0980 -0.0000
vn -0.9952 0.0980 -0.0000
vn -0.9569 0.2903 -0.0000
vn -0.8819 0.4714 -0.0000
vn -0.7730 0.6344 -0.0000
vn -0.6344 0.7730 -0.0000
vn -0.4714 0.8819 -0.0000
vn -0.2903 0.9569 -0.0000
vn -0.0980 0.9952 -0.0000
vn 0.0980 0.9952 -0.0000
vn 0.2903 0.9569 -0.0000
vn 0.4714 0.8819 -0.0000
vn 0.6344 0.7730 -0.0000
vn 0.7730 0.6344 -0.0000
vn 0.8819 0.4714 -0.0000
vn 0.9569 0.2903 -0.0000
vn 0.9952 0.0980 -0.0000
vn 0.9952 -0.0980 -0.0000
vn 0.9569 -0.2903 -0.0000
vn 0.8819 -0.4714 -0.0000
vn 0.7730 -0.6344 -0.0000
vn 0.6344 -0.7730 -0.0000
vn 0.4714 -0.8819 -0.0000
vn 0.2903 -0.9569 -0.0000
vn 0.0980 -0.9952 -0.0000
vt 0.375000 0.500000
vt 0.375000 0.500000
vt 0.625000 0.750000
vt 0.375000 0.750000
vt 0.375000 0.750000
vt 0.125000 0.500000
vt 0.375000 0.250000
vt 0.125000 0.500000
vt 0.375000 0.250000
vt 0.875000 0.750000
vt 0.625000 1.000000
vt 0.625000 0.000000
vt 0.375000 1.000000
vt 0.375000 0.000000
vt 0.125000 0.750000
vt 0.375000 1.000000
vt 0.375000 0.000000
vt 0.125000 0.750000
vt 0.875000 0.660268
vt 0.625000 0.089732
vt 0.497058 0.913318
vt 0.625000 0.660268
vt 0.497058 0.833113
vt 0.530442 0.089732
vt 0.402500 0.913318
vt 0.502942 0.121672
vt 0.211682 0.722500
vt 0.510996 0.099087
vt 0.211682 0.750000
vt 0.375000 0.913318
vt 0.502942 0.250000
vt 0.211682 0.612011
vt 0.502942 0.500000
vt 0.291887 0.612011
vt 0.530442 0.660268
vt 0.402500 0.833113
vt 0.502942 0.628328
vt 0.291887 0.722500
vt 0.510996 0.650913
vt 0.291887 0.750000
vt 0.375000 0.833113
vt 0.860385 0.742320
vt 0.610690 1.000000
vt 0.610690 0.000000
vt 0.860385 0.660268
vt 0.497058 0.908629
vt 0.610690 0.087424
vt 0.639615 0.742320
vt 0.610690 0.750000
vt 0.639615 0.660268
vt 0.497058 0.837801
vt 0.610690 0.662576
vt 0.402500 0.908629
vt 0.519819 0.087424
vt 0.402500 0.837801
vt 0.519819 0.662576
vt 0.216371 0.750000
vt 0.375000 0.908629
vt 0.501132 0.097391
vt 0.287199 0.750000
vt 0.375000 0.837801
vt 0.501132 0.652609
vt 0.216371 0.722500
vt 0.493392 0.121454
vt 0.287199 0.722500
vt 0.493392 0.628546
vt 0.216371 0.618624
vt 0.493392 0.250000
vt 0.287199 0.618624
vt 0.493392 0.500000
vt 0.438837 0.917495
vt 0.250000 0.780880
vt 0.436178 0.916678
vt 0.281250 0.780880
vt 0.441497 0.916678
vt 0.218750 0.780880
vt 0.433620 0.914260
vt 0.312500 0.780880
vt 0.444055 0.914260
vt 0.187500 0.780880
vt 0.446412 0.910333
vt 0.156250 0.780880
vt 0.431263 0.910333
vt 0.343750 0.780880
vt 0.448478 0.905048
vt 0.125000 0.780880
vt 0.429197 0.905048
vt 0.375000 0.780880
vt 0.450173 0.898609
vt 0.093750 0.780880
vt 0.427502 0.898609
vt 0.406250 0.780880
vt 0.451433 0.891262
vt 0.062500 0.780880
vt 0.426242 0.891262
vt 0.437500 0.780880
vt 0.452209 0.883290
vt 0.031250 0.780880
vt 0.425466 0.883290
vt 0.468750 0.780880
vt 0.452471 0.875000
vt 1.000000 0.780880
vt 0.000000 0.780880
vt 0.425204 0.875000
vt 0.500000 0.780880
vt 0.452209 0.866710
vt 0.968750 0.780880
vt 0.425466 0.866710
vt 0.531250 0.780880
vt 0.451433 0.858738
vt 0.937500 0.780880
vt 0.426242 0.858738
vt 0.562500 0.780880
vt 0.429197 0.844952
vt 0.625000 0.780880
vt 0.450173 0.851391
vt 0.906250 0.780880
vt 0.427502 0.851391
vt 0.593750 0.780880
vt 0.431263 0.839667
vt 0.656250 0.780880
vt 0.448477 0.844952
vt 0.875000 0.780880
vt 0.433620 0.835740
vt 0.687500 0.780880
vt 0.446412 0.839667
vt 0.843750 0.780880
vt 0.444055 0.835740
vt 0.812500 0.780880
vt 0.438837 0.832505
vt 0.750000 0.780880
vt 0.441497 0.833322
vt 0.781250 0.780880
vt 0.436178 0.833322
vt 0.718750 0.780880
vt 0.431787 0.923121
vt 0.250000 0.696076
vt 0.429231 0.922196
vt 0.281250 0.696076
vt 0.434343 0.922196
vt 0.218750 0.696076
vt 0.426773 0.919458
vt 0.312500 0.696076
vt 0.436801 0.919458
vt 0.187500 0.696076
vt 0.439066 0.915011
vt 0.156250 0.696076
vt 0.424508 0.915011
vt 0.343750 0.696076
vt 0.441051 0.909027
vt 0.125000 0.696076
vt 0.422523 0.909027
vt 0.375000 0.696076
vt 0.442680 0.901735
vt 0.093750 0.696076
vt 0.420893 0.901735
vt 0.406250 0.696076
vt 0.443891 0.893415
vt 0.062500 0.696076
vt 0.419683 0.893415
vt 0.437500 0.696076
vt 0.418937 0.884388
vt 0.468750 0.696076
vt 0.444637 0.884388
vt 0.031250 0.696076
vt 0.418685 0.875000
vt 0.500000 0.696076
vt 0.444888 0.875000
vt 1.000000 0.696076
vt 0.000000 0.696076
vt 0.418937 0.865612
vt 0.531250 0.696076
vt 0.444637 0.865612
vt 0.968750 0.696076
vt 0.419683 0.856585
vt 0.562500 0.696076
vt 0.443891 0.856585
vt 0.937500 0.696076
vt 0.420893 0.848265
vt 0.593750 0.696076
vt 0.442680 0.848266
vt 0.906250 0.696076
vt 0.424508 0.834989
vt 0.656250 0.696076
vt 0.439066 0.834989
vt 0.843750 0.696076
vt 0.431787 0.826879
vt 0.750000 0.696076
vt 0.434343 0.827804
vt 0.781250 0.696076
vt 0.429231 0.827804
vt 0.718750 0.696076
vt 0.436801 0.830542
vt 0.812500 0.696076
vt 0.426773 0.830542
vt 0.687500 0.696076
vt 0.422523 0.840973
vt 0.625000 0.696076
vt 0.441051 0.840973
vt 0.875000 0.696076
s 0
usemtl Material
f 21/42/1 22/45/1 11/19/1 8/10/1 3/3/1 12/22/1 24/50/1 23/48/1
f 34/73/2 9/13/2 4/4/2 64/134/2 59/124/2 57/120/2 54/114/2 56/118/2 53/112/2 51/108/2 49/104/2 47/99/2 45/95/2 43/91/2 41/87/2 39/83/2 36/77/2
f 4/4/2 3/3/2 8/11/2 9/13/2 34/73/2 33/71/2 35/75/2 37/79/2 38/81/2 40/85/2 42/89/2 44/93/2 46/97/2 48/101/2 50/106/2 52/110/2 55/116/2 58/122/2 60/126/2 61/128/2 63/132/2 62/130/2 64/134/2
f 14/26/3 16/31/3 6/7/3 9/14/3 8/12/3 11/20/3 13/24/3 15/28/3
f 6/6/4 1/1/4 4/4/4 9/15/4
f 18/35/5 12/22/5 3/3/5 4/4/5 1/1/5 17/33/5 19/37/5 20/39/5
f 1/1/6 6/7/6 16/31/6 17/33/6
f 66/138/6 10/16/6 21/43/6 23/49/6 5/5/6 92/191/6 90/187/6 91/189/6 93/193/6 89/185/6 96/199/6 87/181/6 85/177/6 83/173/6 81/168/6 79/164/6 76/158/6 74/154/6 72/150/6 70/146/6 69/144/6 67/140/6 65/136/6
f 92/191/6 5/5/6 10/16/6 66/138/6 68/142/6 71/148/6 73/152/6 75/156/6 77/160/6 78/162/6 80/166/6 82/171/6 84/175/6 86/179/6 95/197/6 88/183/6 94/195/6
f 25/54/5 22/47/5 21/44/5 10/17/5 7/9/5 31/68/5 29/64/5 27/59/5
f 7/8/1 10/18/1 5/5/1 2/2/1
f 32/70/3 2/2/3 5/5/3 23/49/3 24/52/3 26/56/3 28/62/3 30/66/3
f 31/68/2 7/9/2 2/2/2 32/70/2
usemtl 
f 12/23/6 18/36/6 26/55/6 24/51/6
f 25/53/6 13/25/6 11/21/6 22/46/6
f 20/40/7 19/38/7 30/65/7 28/60/7
f 14/27/7 15/29/7 27/57/7 29/63/7
f 26/55/8 18/36/8 20/41/8 28/61/8
f 27/58/8 15/30/8 13/25/8 25/53/8
f 32/69/1 30/65/1 19/38/1 17/34/1 16/32/1 14/27/1 29/63/1 31/67/1
f 50/107/9 48/102/9 81/169/9 83/174/9
f 52/111/10 50/107/10 83/174/10 85/178/10
f 55/117/11 52/111/11 85/178/11 87/182/11
f 58/123/12 55/117/12 87/182/12 96/200/12
f 60/127/13 58/123/13 96/200/13 89/186/13
f 61/129/14 60/127/14 89/186/14 93/194/14
f 61/129/15 93/194/15 91/190/15 63/133/15
f 63/133/16 91/190/16 90/188/16 62/131/16
f 62/131/17 90/188/17 92/192/17 64/135/17
f 64/135/18 92/192/18 94/196/18 59/125/18
f 88/184/19 57/121/19 59/125/19 94/196/19
f 95/198/20 54/115/20 57/121/20 88/184/20
f 86/180/21 56/119/21 54/115/21 95/198/21
f 84/176/22 53/113/22 56/119/22 86/180/22
f 82/172/23 51/109/23 53/113/23 84/176/23
f 80/167/24 49/105/24 51/109/24 82/172/24
f 78/163/25 47/100/25 49/105/25 80/167/25
f 77/161/26 45/96/26 47/100/26 78/163/26
f 75/157/27 43/92/27 45/96/27 77/161/27
f 73/153/28 41/88/28 43/92/28 75/157/28
f 71/149/29 39/84/29 41/88/29 73/153/29
f 68/143/30 36/78/30 39/84/30 71/149/30
f 34/74/31 36/78/31 68/143/31 66/139/31
f 33/72/32 34/74/32 66/139/32 65/137/32
f 35/76/33 33/72/33 65/137/33 67/141/33
f 37/80/34 35/76/34 67/141/34 69/145/34
f 38/82/35 37/80/35 69/145/35 70/147/35
f 40/86/36 38/82/36 70/147/36 72/151/36
f 42/90/37 40/86/37 72/151/37 74/155/37
f 44/94/38 42/90/38 74/155/38 76/159/38
f 46/98/39 44/94/39 76/159/39 79/165/39
f 48/103/40 46/98/40 79/165/40 81/170/40
