# Blender 3.4.1
# www.blender.org
mtllib Office_Pc.mtl
o Cube
v 1.000000 1.963559 -0.480428
v 1.000000 -0.036441 -0.480428
v 1.000000 1.963559 0.480428
v 1.000000 -0.036441 0.480428
v -1.000000 1.963559 -0.480428
v -1.000000 -0.036441 -0.480428
v -1.000000 1.963559 0.480428
v -1.000000 -0.036441 0.480428
v 1.000000 1.539316 -0.405433
v 1.000000 1.436951 -0.405433
v 1.000000 1.539316 0.405433
v 1.000000 1.436951 0.405433
v 1.017583 1.539316 -0.405433
v 1.017583 1.436951 -0.405433
v 1.017583 1.539316 0.405433
v 1.017583 1.436951 0.405433
v 1.000000 1.852134 -0.400553
v 1.000000 1.792838 -0.400553
v 1.000000 1.852134 -0.243077
v 1.000000 1.792838 -0.243077
v 1.017583 1.852134 -0.400553
v 1.017583 1.792838 -0.400553
v 1.017583 1.852134 -0.243077
v 1.017583 1.792838 -0.243077
v 1.000000 1.312990 -0.400553
v 1.000000 1.253694 -0.400553
v 1.000000 1.312990 -0.243077
v 1.000000 1.253694 -0.243077
v 1.017583 1.312990 -0.400553
v 1.017583 1.253694 -0.400553
v 1.017583 1.312990 -0.243077
v 1.017583 1.253694 -0.243077
v 1.000000 1.312990 -0.195761
v 1.000000 1.253694 -0.195761
v 1.000000 1.312990 -0.038286
v 1.000000 1.253694 -0.038286
v 1.017583 1.312990 -0.195761
v 1.017583 1.253694 -0.195761
v 1.017583 1.312990 -0.038286
v 1.017583 1.253694 -0.038286
v 1.000000 1.312990 0.033550
v 1.000000 1.253694 0.033550
v 1.000000 1.312990 0.191026
v 1.000000 1.253694 0.191026
v 1.017583 1.312990 0.033550
v 1.017583 1.253694 0.033550
v 1.017583 1.312990 0.191026
v 1.017583 1.253694 0.191026
v 1.000000 1.312990 0.243077
v 1.000000 1.253694 0.243077
v 1.000000 1.312990 0.400553
v 1.000000 1.253694 0.400553
v 1.017583 1.312990 0.243077
v 1.017583 1.253694 0.243077
v 1.017583 1.312990 0.400553
v 1.017583 1.253694 0.400553
v 0.925635 0.037924 -0.504956
v -0.925635 0.037924 -0.504956
v 0.925635 1.889194 -0.504956
v -0.925635 1.889194 -0.504956
v -0.925635 0.037924 0.504956
v -0.925635 1.889194 0.504956
v 0.925635 1.889194 0.504956
v 0.925635 0.037924 0.504956
vn -0.0000 1.0000 -0.0000
vn -0.3132 -0.0000 0.9497
vn -1.0000 -0.0000 -0.0000
vn -0.0000 -1.0000 -0.0000
vn 1.0000 -0.0000 -0.0000
vn 0.3132 -0.0000 -0.9497
vn -0.0000 -0.0000 1.0000
vn -0.0000 -0.0000 -1.0000
vn -0.3132 -0.0000 -0.9497
vn -0.0000 -0.3132 -0.9497
vn -0.0000 0.3132 -0.9497
vn -0.0000 -0.3132 0.9497
vn -0.0000 0.3132 0.9497
vn 0.3132 -0.0000 0.9497
vt 0.625000 0.500000
vt 0.375000 0.500000
vt 0.625000 0.750000
vt 0.375000 0.750000
vt 0.625000 0.250000
vt 0.875000 0.500000
vt 0.375000 0.250000
vt 0.125000 0.500000
vt 0.625000 0.000000
vt 0.875000 0.750000
vt 0.375000 0.000000
vt 0.125000 0.750000
vt 0.625000 0.500000
vt 0.375000 0.500000
vt 0.625000 0.750000
vt 0.375000 0.750000
vt 0.625000 0.500000
vt 0.375000 0.500000
vt 0.625000 0.750000
vt 0.375000 0.750000
vt 0.625000 0.500000
vt 0.375000 0.500000
vt 0.625000 0.750000
vt 0.375000 0.750000
vt 0.625000 0.500000
vt 0.375000 0.500000
vt 0.625000 0.750000
vt 0.375000 0.750000
vt 0.625000 0.500000
vt 0.375000 0.500000
vt 0.625000 0.750000
vt 0.375000 0.750000
vt 0.625000 0.500000
vt 0.375000 0.500000
vt 0.625000 0.750000
vt 0.375000 0.750000
vt 0.625000 0.500000
vt 0.375000 0.500000
vt 0.625000 0.750000
vt 0.375000 0.750000
vt 0.625000 0.500000
vt 0.375000 0.500000
vt 0.625000 0.750000
vt 0.375000 0.750000
vt 0.625000 0.500000
vt 0.375000 0.500000
vt 0.625000 0.750000
vt 0.375000 0.750000
vt 0.625000 0.500000
vt 0.375000 0.500000
vt 0.625000 0.750000
vt 0.375000 0.750000
vt 0.625000 0.500000
vt 0.375000 0.500000
vt 0.625000 0.750000
vt 0.375000 0.750000
vt 0.625000 0.500000
vt 0.375000 0.500000
vt 0.625000 0.750000
vt 0.375000 0.750000
vt 0.375000 0.500000
vt 0.375000 0.250000
vt 0.125000 0.500000
vt 0.625000 0.500000
vt 0.625000 0.250000
vt 0.875000 0.500000
vt 0.375000 0.000000
vt 0.375000 1.000000
vt 0.125000 0.750000
vt 0.625000 0.000000
vt 0.625000 1.000000
vt 0.875000 0.750000
vt 0.625000 0.750000
vt 0.375000 0.750000
s 0
usemtl Material
f 1/1/1 5/6/1 7/10/1 3/3/1
f 7/9/2 8/11/2 61/67/2 62/70/2
f 8/11/3 7/9/3 5/5/3 6/7/3
f 6/8/4 2/2/4 4/4/4 8/12/4
f 3/3/5 4/4/5 12/16/5 11/15/5
f 1/1/6 2/2/6 57/61/6 59/64/6
f 12/16/4 10/14/4 14/18/4 16/20/4
f 2/2/5 1/1/5 9/13/5 10/14/5
f 4/4/5 2/2/5 10/14/5 12/16/5
f 1/1/5 3/3/5 11/15/5 9/13/5
f 14/18/5 13/17/5 15/19/5 16/20/5
f 11/15/7 12/16/7 16/20/7 15/19/7
f 9/13/1 11/15/1 15/19/1 13/17/1
f 10/14/8 9/13/8 13/17/8 14/18/8
f 20/24/4 18/22/4 22/26/4 24/28/4
f 22/26/5 21/25/5 23/27/5 24/28/5
f 19/23/7 20/24/7 24/28/7 23/27/7
f 17/21/1 19/23/1 23/27/1 21/25/1
f 18/22/8 17/21/8 21/25/8 22/26/8
f 28/32/4 26/30/4 30/34/4 32/36/4
f 30/34/5 29/33/5 31/35/5 32/36/5
f 27/31/7 28/32/7 32/36/7 31/35/7
f 25/29/1 27/31/1 31/35/1 29/33/1
f 26/30/8 25/29/8 29/33/8 30/34/8
f 36/40/4 34/38/4 38/42/4 40/44/4
f 38/42/5 37/41/5 39/43/5 40/44/5
f 35/39/7 36/40/7 40/44/7 39/43/7
f 33/37/1 35/39/1 39/43/1 37/41/1
f 34/38/8 33/37/8 37/41/8 38/42/8
f 44/48/4 42/46/4 46/50/4 48/52/4
f 46/50/5 45/49/5 47/51/5 48/52/5
f 43/47/7 44/48/7 48/52/7 47/51/7
f 41/45/1 43/47/1 47/51/1 45/49/1
f 42/46/8 41/45/8 45/49/8 46/50/8
f 52/56/4 50/54/4 54/58/4 56/60/4
f 54/58/5 53/57/5 55/59/5 56/60/5
f 51/55/7 52/56/7 56/60/7 55/59/7
f 49/53/1 51/55/1 55/59/1 53/57/1
f 50/54/8 49/53/8 53/57/8 54/58/8
f 58/62/8 60/65/8 59/64/8 57/61/8
f 6/7/9 5/5/9 60/65/9 58/62/9
f 2/2/10 6/8/10 58/63/10 57/61/10
f 5/6/11 1/1/11 59/64/11 60/66/11
f 64/74/7 63/73/7 62/71/7 61/68/7
f 8/12/12 4/4/12 64/74/12 61/69/12
f 3/3/13 7/10/13 62/72/13 63/73/13
f 4/4/14 3/3/14 63/73/14 64/74/14
