# Blender 3.6.2
# www.blender.org
mtllib office_lamp.mtl
o Cube
v 0.372248 2.686488 -1.000000
v 0.372248 -2.686488 -1.000000
v 0.372248 2.686488 1.000000
v 0.372248 -2.686488 1.000000
v -0.372248 2.686488 -1.000000
v -0.372248 -2.686488 -1.000000
v -0.372248 2.686488 1.000000
v -0.372248 -2.686488 1.000000
vn -0.0000 1.0000 -0.0000
vn -0.0000 -0.0000 1.0000
vn -1.0000 -0.0000 -0.0000
vn -0.0000 -1.0000 -0.0000
vn 1.0000 -0.0000 -0.0000
vn -0.0000 -0.0000 -1.0000
vt 0.625000 0.500000
vt 0.875000 0.500000
vt 0.875000 0.750000
vt 0.625000 0.750000
vt 0.375000 0.750000
vt 0.625000 1.000000
vt 0.375000 1.000000
vt 0.375000 0.000000
vt 0.625000 0.000000
vt 0.625000 0.250000
vt 0.375000 0.250000
vt 0.125000 0.500000
vt 0.375000 0.500000
vt 0.125000 0.750000
s 0
usemtl Material
f 1/1/1 5/2/1 7/3/1 3/4/1
f 4/5/2 3/4/2 7/6/2 8/7/2
f 8/8/3 7/9/3 5/10/3 6/11/3
f 6/12/4 2/13/4 4/5/4 8/14/4
f 2/13/5 1/1/5 3/4/5 4/5/5
f 6/11/6 5/10/6 1/1/6 2/13/6
o Cube.001
v -0.499540 -0.384134 1.456415
v -0.623040 -0.094451 1.456415
v -0.499540 -0.384134 -1.456415
v -0.623040 -0.094451 -1.456415
v 0.623040 0.094451 1.456415
v 0.499540 0.384134 1.456415
v 0.623040 0.094451 -1.456415
v 0.499540 0.384134 -1.456415
v -0.499540 -0.384134 -1.032162
v -0.499540 -0.384134 1.032162
v -0.623040 -0.094451 1.032162
v -0.623040 -0.094451 -1.032162
v 0.623040 0.094451 1.032162
v 0.623040 0.094451 -1.032162
v 0.499540 0.384134 -1.032162
v 0.499540 0.384134 1.032162
v 0.252393 -0.063565 -1.456415
v 0.128893 0.226118 -1.456415
v 0.252393 -0.063565 1.456415
v 0.128893 0.226118 1.456415
v 0.128893 0.226118 -1.032162
v 0.128893 0.226118 1.032162
v 0.252393 -0.063565 -1.032162
v 0.252393 -0.063565 1.032162
v 1.174540 -1.199158 -1.032162
v 1.174540 -1.199158 -1.456415
v 0.803893 -1.357175 1.456415
v 1.174540 -1.199158 1.456415
v 1.174540 -1.199158 1.032162
v 0.803893 -1.357175 -1.456415
v 0.803893 -1.357175 -1.032162
v 0.803893 -1.357175 1.032162
v 0.898790 -0.552354 1.456415
v 0.898790 -0.552354 1.032162
v 0.528143 -0.710370 1.456415
v 0.528143 -0.710370 1.032162
v 0.528143 -0.710370 -1.032162
v 0.898790 -0.552354 -1.032162
v 0.898790 -0.552354 -1.456415
v 0.528143 -0.710370 -1.456415
v 1.607989 -0.776600 -1.032162
v 1.607989 -0.776600 -1.456415
v 1.607989 -0.776600 1.456415
v 1.607989 -0.776600 1.032162
v 1.332239 -0.605330 1.456415
v 1.332239 -0.605330 -1.456415
v 1.332239 -0.605330 1.032162
v 1.332239 -0.605330 -1.032162
v 1.723122 -0.531890 1.032162
v 1.399444 -0.556468 1.032162
v 1.723122 -0.531890 -1.032162
v 1.399444 -0.556468 -1.032162
v 1.515480 -0.386007 1.032162
v 1.385919 -0.410586 1.032162
v 1.515480 -0.386007 -1.032162
v 1.385919 -0.410586 -1.032162
v 1.503234 -0.105451 1.075300
v 1.380287 -0.380896 1.396402
v 1.503234 -0.105451 -1.075300
v 1.380287 -0.380896 -1.396402
v 1.253535 0.778778 1.075300
v 1.117362 1.005066 1.396402
v 1.253535 0.778778 -1.075300
v 1.117362 1.005066 -1.396402
v -0.396100 0.389085 1.032162
v -0.396100 0.389085 -1.032162
v -0.510336 0.709654 -1.032162
v -0.510336 0.709654 1.032162
v -0.922013 0.238832 1.032162
v -0.922013 0.238832 -1.032162
v -0.817996 0.562861 -1.032162
v -0.817996 0.562861 1.032162
v -1.160679 0.315447 1.032162
v -1.160679 0.315447 -1.032162
v -1.056662 0.639476 -1.032162
v -1.056662 0.639476 1.032162
v 1.509847 -0.356317 -1.396402
v 1.509847 -0.356317 1.396402
v 1.246922 1.029645 -1.396402
v 1.246922 1.029645 1.396402
v 1.592708 -0.080184 -1.075300
v 1.592708 -0.080184 1.075300
v 1.343009 0.804045 -1.075300
v 1.343009 0.804045 1.075300
vn -0.9199 -0.3922 -0.0000
vn -0.0000 -0.0000 -1.0000
vn 0.9199 0.3922 -0.0000
vn -0.0000 -0.0000 1.0000
vn -0.3922 0.9199 -0.0000
vn 0.3922 -0.9199 -0.0000
vn 0.5276 0.8495 -0.0000
vn 0.1213 0.9926 -0.0000
vn 0.6981 -0.7160 -0.0000
vn -0.9957 -0.0923 -0.0000
vn -0.5881 0.8088 -0.0000
vn 0.9049 -0.4257 -0.0000
vn 0.9825 0.1864 -0.0000
vn 0.5749 0.8182 -0.0000
vn -0.9825 -0.1864 -0.0000
vn 0.1857 -0.9791 0.0827
vn 0.1857 -0.9791 -0.0827
vn -0.1864 0.9825 -0.0000
vn 0.2718 -0.9624 -0.0000
vn 0.6033 0.7975 -0.0000
vn -0.9053 0.4249 -0.0000
vn 0.3056 0.9521 -0.0000
vn 0.2747 -0.9615 -0.0000
vn -0.4306 0.9025 -0.0000
vn -0.9521 0.3056 -0.0000
vn -0.3056 -0.9521 -0.0000
vn 0.9997 0.0264 -0.0000
vn 0.9754 0.2203 -0.0000
vn 0.9624 0.2718 -0.0000
vn -0.2718 0.9624 -0.0000
vt 0.375000 0.213588
vt 0.625000 0.213588
vt 0.625000 0.250000
vt 0.375000 0.250000
vt 0.375000 0.417456
vt 0.625000 0.417456
vt 0.625000 0.500000
vt 0.375000 0.500000
vt 0.375000 0.713588
vt 0.625000 0.713588
vt 0.625000 0.750000
vt 0.375000 0.750000
vt 0.375000 0.832543
vt 0.625000 0.832543
vt 0.625000 1.000000
vt 0.375000 1.000000
vt 0.375000 0.536412
vt 0.292456 0.536412
vt 0.707544 0.713588
vt 0.875000 0.713588
vt 0.875000 0.750000
vt 0.707544 0.750000
vt 0.707544 0.500000
vt 0.875000 0.500000
vt 0.875000 0.536412
vt 0.707544 0.536412
vt 0.292456 0.713588
vt 0.625000 0.536412
vt 0.375000 0.000000
vt 0.625000 0.000000
vt 0.625000 0.036412
vt 0.375000 0.036412
vt 0.125000 0.536412
vt 0.125000 0.713588
vt 0.125000 0.500000
vt 0.292456 0.500000
vt 0.292456 0.750000
vt 0.125000 0.750000
vt 0.292456 0.713588
vt 0.375000 0.417457
vt 0.000000 0.000000
s 0
f 17/15/7 20/16/7 12/17/7 11/18/7
f 25/19/8 26/20/8 16/21/8 15/22/8
f 21/23/9 24/24/9 14/25/9 13/26/9
f 27/27/10 28/28/10 10/29/10 9/30/10
f 46/31/10 45/32/10 39/32/10 33/31/10
f 30/33/11 19/34/11 10/35/11 28/36/11
f 26/37/11 12/38/11 20/39/11 29/40/11
f 19/34/10 30/33/10 76/33/10 73/34/10
f 34/22/8 47/22/8 54/22/8 50/22/8
f 31/32/12 22/31/12 21/23/12 32/41/12
f 15/22/9 16/21/9 23/42/9 22/31/9
f 22/31/9 23/42/9 24/24/9 21/23/9
f 9/43/7 10/44/7 19/45/7 18/46/7
f 18/46/7 19/45/7 20/16/7 17/15/7
f 17/47/12 31/32/12 32/41/12 18/48/12
f 11/49/12 25/50/12 31/32/12 17/47/12
f 23/42/11 29/40/11 30/33/11 24/24/11
f 16/21/11 26/37/11 29/40/11 23/42/11
f 24/24/11 30/33/11 28/36/11 14/25/11
f 18/48/12 32/41/12 27/51/12 9/52/12
f 13/26/10 14/25/10 28/28/10 27/27/10
f 11/18/8 12/17/8 26/20/8 25/19/8
f 40/41/12 37/23/12 36/26/12 35/51/12
f 38/50/12 34/22/12 33/31/12 39/32/12
f 41/26/10 43/27/10 35/27/10 36/26/10
f 43/51/7 44/53/7 40/41/7 35/51/7
f 48/54/8 47/22/8 34/22/8 38/19/8
f 45/32/7 48/50/7 38/50/7 39/32/7
f 44/53/8 42/23/8 37/23/8 40/41/8
f 46/31/10 33/31/10 49/31/10 56/31/10
f 32/41/8 21/23/8 42/23/8 44/53/8
f 27/51/7 32/41/7 44/53/7 43/51/7
f 13/26/10 27/27/10 43/27/10 41/26/10
f 21/23/9 13/26/9 41/26/9 42/23/9
f 15/22/9 22/31/9 46/31/9 47/22/9
f 31/32/7 25/50/7 48/50/7 45/32/7
f 25/19/8 15/22/8 47/22/8 48/54/8
f 22/31/10 31/32/10 45/32/10 46/31/10
f 55/23/13 53/26/13 51/26/13 52/23/13
f 54/22/13 56/31/13 49/31/13 50/22/13
f 42/23/14 41/26/14 53/26/14 55/23/14
f 41/26/10 36/26/10 51/26/10 53/26/10
f 47/22/14 46/31/14 56/31/14 54/22/14
f 37/23/8 42/23/8 55/23/8 52/23/8
f 36/26/15 37/23/15 52/23/15 51/26/15
f 33/31/15 34/22/15 50/22/15 49/31/15
f 55/55/14 56/55/14 46/55/14 42/55/14
f 49/31/8 56/31/8 60/31/8 59/31/8
f 37/55/9 33/55/9 46/55/9 42/55/9
f 37/55/15 33/55/15 49/55/15 52/55/15
f 60/55/16 58/55/16 62/55/16 64/55/16
f 56/55/17 55/55/17 58/55/17 60/55/17
f 55/23/10 52/23/10 57/23/10 58/23/10
f 52/55/18 49/55/18 59/55/18 57/55/18
f 61/55/19 63/55/19 85/55/19 86/55/19
f 59/31/8 60/31/8 64/31/8 63/31/8
f 57/55/20 59/55/20 63/55/20 61/55/20
f 58/23/10 57/23/10 61/23/10 62/23/10
f 68/55/21 66/55/21 70/55/21 72/55/21
f 62/23/22 61/23/22 86/23/22 66/23/22
f 64/55/21 62/55/21 66/55/21 68/55/21
f 63/31/23 64/31/23 68/31/23 85/31/23
f 88/55/24 87/55/24 72/55/24 70/55/24
f 85/31/8 68/31/8 72/31/8 87/31/8
f 65/55/25 67/55/25 89/55/25 90/55/25
f 66/23/10 86/23/10 88/23/10 70/23/10
f 73/34/10 76/33/10 80/33/10 77/34/10
f 30/33/26 29/40/26 75/40/26 76/33/26
f 29/40/8 20/39/8 74/39/8 75/40/8
f 20/16/27 19/45/27 73/45/27 74/16/27
f 80/33/28 79/40/28 83/40/28 84/33/28
f 74/16/29 73/45/29 77/45/29 78/16/29
f 76/33/30 75/40/30 79/40/30 80/33/30
f 75/40/8 74/39/8 78/39/8 79/40/8
f 83/40/31 82/39/31 81/34/31 84/33/31
f 79/40/8 78/39/8 82/39/8 83/40/8
f 77/34/10 80/33/10 84/33/10 81/34/10
f 78/16/32 77/45/32 81/45/32 82/16/32
f 67/55/33 65/55/33 86/55/33 85/55/33
f 69/55/33 71/55/33 87/55/33 88/55/33
f 71/55/34 67/55/34 85/55/34 87/55/34
f 65/55/34 69/55/34 88/55/34 86/55/34
f 90/55/35 89/55/35 91/55/35 92/55/35
f 69/55/10 65/55/10 90/55/10 92/55/10
f 71/55/36 69/55/36 92/55/36 91/55/36
f 67/55/8 71/55/8 91/55/8 89/55/8
