# Blender 3.4.1
# www.blender.org
mtllib Pc_Monitor.mtl
o Cube
v 0.786230 0.142145 0.483855
v 0.786230 0.096361 0.483855
v 0.786230 0.142145 -0.467091
v 0.786230 0.096361 -0.467091
v -0.786230 0.142145 0.483855
v -0.786230 0.096361 0.483855
v -0.786230 0.142145 -0.467091
v -0.786230 0.096361 -0.467091
v 0.256436 0.189433 -0.260095
v -0.256436 0.189433 -0.260095
v 0.256436 0.189433 0.044597
v -0.256436 0.189433 0.044597
v 0.256436 1.599226 0.146270
v -0.256436 1.599226 0.146270
v 0.256436 1.599226 0.315102
v -0.256436 1.599226 0.315102
v 0.256436 1.858809 0.146270
v -0.256436 1.858809 0.146270
v 0.256436 1.858809 0.315102
v -0.256436 1.858809 0.315102
v -1.735124 0.767340 0.437626
v 1.735124 0.767340 0.437626
v -1.735124 2.690694 0.437626
v 1.735124 2.690694 0.437626
v -1.735124 0.767340 0.492501
v 1.735124 0.767340 0.492501
v -1.735124 2.690694 0.492501
v 1.735124 2.690694 0.492501
v -1.677963 0.843326 0.492501
v 1.677963 0.843326 0.492501
v -1.677963 2.635654 0.492501
v 1.677963 2.635654 0.492501
v -1.677963 0.843326 0.483386
v 1.677963 0.843326 0.483386
v -1.677963 2.635654 0.483386
v 1.677963 2.635654 0.483386
vn -0.0000 0.9943 0.1070
vn -0.0000 -0.0000 -1.0000
vn -1.0000 -0.0000 -0.0000
vn -0.0000 -1.0000 -0.0000
vn 1.0000 -0.0000 -0.0000
vn -0.0000 -0.0000 1.0000
vn -0.0000 0.9749 -0.2227
vn -0.0889 0.9960 -0.0000
vn 0.0889 0.9960 -0.0000
vn 0.0826 -0.0000 -0.9966
vn -0.0000 0.2770 -0.9609
vn -0.0000 -0.1884 0.9821
vn -0.0000 1.0000 -0.0000
vn -0.0000 0.1457 -0.9893
vn -0.0000 -0.1457 -0.9893
vn -0.0826 -0.0000 -0.9966
vt 0.625000 0.500000
vt 0.375000 0.500000
vt 0.625000 0.750000
vt 0.375000 0.750000
vt 0.625000 0.250000
vt 0.125000 0.500000
vt 0.375000 0.250000
vt 0.625000 1.000000
vt 0.625000 0.000000
vt 0.375000 1.000000
vt 0.375000 0.000000
vt 0.125000 0.750000
vt 0.625000 0.750000
vt 0.625000 0.000000
vt 0.625000 1.000000
vt 0.625000 0.500000
vt 0.625000 0.250000
vt 0.625000 0.750000
vt 0.625000 0.000000
vt 0.625000 1.000000
vt 0.625000 0.500000
vt 0.625000 0.250000
vt 0.625000 0.750000
vt 0.875000 0.750000
vt 0.625000 0.000000
vt 0.625000 1.000000
vt 0.625000 0.500000
vt 0.875000 0.500000
vt 0.625000 0.250000
vt 0.625000 0.250000
vt 0.625000 0.500000
vt 0.625000 0.250000
vt 0.875000 0.500000
vt 0.625000 0.500000
vt 0.625000 0.250000
vt 0.625000 0.500000
vt 0.625000 0.250000
vt 0.875000 0.500000
vt 0.625000 0.500000
vt 0.625000 0.250000
vt 0.625000 0.500000
vt 0.875000 0.500000
vt 0.625000 0.250000
vt 0.625000 0.500000
vt 0.625000 0.250000
vt 0.625000 0.500000
vt 0.875000 0.500000
vt 0.625000 0.250000
vt 0.625000 0.500000
s 0
usemtl Material
f 1/1/1 11/16/1 12/17/1 5/5/1
f 4/4/2 8/10/2 7/8/2 3/3/2
f 8/11/3 6/7/3 5/5/3 7/9/3
f 6/6/4 8/12/4 4/4/4 2/2/4
f 2/2/5 4/4/5 3/3/5 1/1/5
f 6/7/6 2/2/6 1/1/6 5/5/6
f 12/17/3 16/22/3 14/19/3 10/14/3
f 7/8/7 10/15/7 9/13/7 3/3/7
f 5/5/8 12/17/8 10/14/8 7/9/8
f 3/3/9 9/13/9 11/16/9 1/1/9
f 19/27/10 24/34/10 22/31/10 15/21/10
f 10/15/11 14/20/11 13/18/11 9/13/11
f 11/16/12 15/21/12 16/22/12 12/17/12
f 9/13/5 13/18/5 15/21/5 11/16/5
f 19/27/13 17/23/13 18/24/13 20/28/13
f 13/18/5 17/23/5 19/27/5 15/21/5
f 16/22/3 20/29/3 18/25/3 14/19/3
f 14/20/2 18/26/2 17/23/2 13/18/2
f 21/30/3 25/35/3 27/37/3 23/32/3
f 20/28/14 23/33/14 24/34/14 19/27/14
f 15/21/15 22/31/15 21/30/15 16/22/15
f 16/22/16 21/30/16 23/32/16 20/29/16
f 25/35/6 29/40/6 31/43/6 27/37/6
f 22/31/4 26/36/4 25/35/4 21/30/4
f 24/34/5 28/39/5 26/36/5 22/31/5
f 23/33/13 27/38/13 28/39/13 24/34/13
f 32/44/3 36/49/3 34/46/3 30/41/3
f 26/36/6 30/41/6 29/40/6 25/35/6
f 28/39/6 32/44/6 30/41/6 26/36/6
f 27/38/6 31/42/6 32/44/6 28/39/6
f 34/46/6 36/49/6 35/48/6 33/45/6
f 31/42/4 35/47/4 36/49/4 32/44/4
f 29/40/5 33/45/5 35/48/5 31/43/5
f 30/41/13 34/46/13 33/45/13 29/40/13
