# Blender 3.4.1
# www.blender.org
mtllib Reception_Desk.mtl
o Cube
v 1.000000 1.972860 -4.945328
v 1.000000 -0.027140 -4.945328
v 1.000000 1.972860 4.945328
v 1.000000 -0.027140 4.945328
v -1.000000 1.972860 -4.945328
v -1.000000 -0.027140 -4.945328
v -1.000000 1.972860 4.945328
v -1.000000 -0.027140 4.945328
v 1.070101 1.970892 5.056445
v -1.070101 1.970892 5.056445
v 1.070101 1.970892 -5.056445
v -1.070101 1.970892 -5.056445
v 1.070101 2.149980 5.056445
v -1.070101 2.149980 5.056445
v 1.070101 2.149980 -5.056445
v -1.070101 2.149980 -5.056445
vn -0.0000 -0.0000 1.0000
vn -1.0000 -0.0000 -0.0000
vn -0.0000 -1.0000 -0.0000
vn 1.0000 -0.0000 -0.0000
vn -0.0000 -0.0000 -1.0000
vn -0.0281 -0.9996 -0.0000
vn 0.0281 -0.9996 -0.0000
vn -0.0000 -0.9998 -0.0177
vn -0.0000 -0.9998 0.0177
vn -0.0000 1.0000 -0.0000
vt 0.625000 0.500000
vt 0.375000 0.500000
vt 0.625000 0.750000
vt 0.375000 0.750000
vt 0.625000 0.250000
vt 0.125000 0.500000
vt 0.375000 0.250000
vt 0.625000 0.000000
vt 0.625000 1.000000
vt 0.375000 1.000000
vt 0.375000 0.000000
vt 0.125000 0.750000
vt 0.625000 0.750000
vt 0.625000 1.000000
vt 0.625000 0.000000
vt 0.625000 0.500000
vt 0.625000 0.250000
vt 0.625000 0.750000
vt 0.875000 0.750000
vt 0.625000 1.000000
vt 0.625000 0.000000
vt 0.625000 0.500000
vt 0.875000 0.500000
vt 0.625000 0.250000
s 0
usemtl Material
f 4/4/1 3/3/1 7/9/1 8/10/1
f 8/11/2 7/8/2 5/5/2 6/7/2
f 6/6/3 2/2/3 4/4/3 8/12/3
f 2/2/4 1/1/4 3/3/4 4/4/4
f 6/7/5 5/5/5 1/1/5 2/2/5
f 3/3/6 1/1/6 11/16/6 9/13/6
f 5/5/7 7/8/7 10/15/7 12/17/7
f 7/9/8 3/3/8 9/13/8 10/14/8
f 1/1/9 5/5/9 12/17/9 11/16/9
f 11/16/5 12/17/5 16/24/5 15/22/5
f 15/22/10 16/23/10 14/19/10 13/18/10
f 10/14/1 9/13/1 13/18/1 14/20/1
f 12/17/2 10/15/2 14/21/2 16/24/2
f 9/13/4 11/16/4 15/22/4 13/18/4
